<svg xmlns="http://www.w3.org/2000/svg" width="184.832" height="37.762" viewBox="0 0 184.832 37.762">
  <g id="Group_2410" data-name="Group 2410" transform="translate(-24.011 5.507)">
    <g id="Layer_2" data-name="Layer 2" transform="translate(24.008 -5.504)">
      <g id="Layer_1" data-name="Layer 1">
        <path id="Path_199" data-name="Path 199" d="M30.134,22.6a4.756,4.756,0,0,0-3.4,1.426c-.081.081-.46.575-.575.713a9.368,9.368,0,1,1,0-11.7c.121.15.523.61.575.69a4.773,4.773,0,0,0,7.766-5.3,5.216,5.216,0,0,0-.495-.851l-.035-.046a18.88,18.88,0,1,0,0,22.7l.035-.04a5.267,5.267,0,0,0,.495-.863A4.767,4.767,0,0,0,30.134,22.6" fill="#00d498"/>
        <path id="Path_200" data-name="Path 200" d="M30.134,32.146a4.756,4.756,0,0,1-3.4-1.426c-.081-.081-.161-.167-.236-.253s-.224-.311-.345-.46a4.774,4.774,0,1,1,7.809-5.492l.035.04a5.268,5.268,0,0,1,.512.857,4.767,4.767,0,0,1-4.371,6.734" fill="#ffdc60"/>
        <path id="Path_201" data-name="Path 201" d="M149.07,24.63h-.989a.909.909,0,0,1-.863-1.024V17.062h1.53a1.461,1.461,0,1,0,0-2.916h-1.53V11.72a1.763,1.763,0,0,0,0-.3,1.691,1.691,0,0,0-1.7-1.725h0a1.685,1.685,0,0,0-1.679,1.679V23.607a4.221,4.221,0,0,0,4.238,4.382h.989a1.679,1.679,0,1,0,0-3.358" fill="#03292d"/>
        <path id="Path_202" data-name="Path 202" d="M91.827,24.63h-.966a.909.909,0,0,1-.886-1.024V11.4a1.679,1.679,0,0,0-3.358,0V23.607a4.221,4.221,0,0,0,4.244,4.382h.983a1.679,1.679,0,1,0,0-3.358" fill="#03292d"/>
        <path id="Path_203" data-name="Path 203" d="M140.53,14.147h0a1.691,1.691,0,0,0-1.581,1.081,6.953,6.953,0,1,0,0,11.726,1.68,1.68,0,0,0,.477.679l.052.04a1.668,1.668,0,0,0,1.047.368,1.725,1.725,0,0,0,1.7-1.7v-10.5a1.691,1.691,0,0,0-1.691-1.691m-5.308,10.507a3.56,3.56,0,1,1,3.56-3.56,3.56,3.56,0,0,1-3.56,3.56" fill="#03292d"/>
        <path id="Path_204" data-name="Path 204" d="M121.1,14.158a5.452,5.452,0,0,0-3.5,1.576,5.549,5.549,0,0,0-4.256-1.576,5.636,5.636,0,0,0-5.233,5.664v6.487a1.725,1.725,0,0,0,3.393,0v-6.59a2.185,2.185,0,0,1,2.438-2.168,2.226,2.226,0,0,1,1.926,2.231v6.527a1.725,1.725,0,0,0,3.387.173V19.719h0a2.191,2.191,0,0,1,2.438-2.162,2.226,2.226,0,0,1,1.944,2.226v6.734a1.725,1.725,0,0,0,.575,1.116l.052.04a1.668,1.668,0,0,0,1.047.368,1.725,1.725,0,0,0,1.7-1.7V19.719a5.584,5.584,0,0,0-5.94-5.561" fill="#03292d"/>
        <path id="Path_205" data-name="Path 205" d="M63.4,14.158a5.394,5.394,0,0,0-1.829.437V11.432a1.7,1.7,0,0,0-3.387,0V26.309h0v.035a1.673,1.673,0,0,0,.575,1.288l.052.04a1.668,1.668,0,0,0,1.047.368,1.725,1.725,0,0,0,1.685-1.524v-6.8a2.185,2.185,0,0,1,2.438-2.168,2.226,2.226,0,0,1,1.932,2.231V26.3a1.7,1.7,0,1,0,3.393,0V19.719a5.584,5.584,0,0,0-5.94-5.561" fill="#03292d"/>
        <path id="Path_206" data-name="Path 206" d="M84.662,15.6a.974.974,0,0,0,0-.127V15.41a1.117,1.117,0,0,0-.029-.115.241.241,0,0,1,0-.058c0-.035-.029-.069-.046-.109v-.052l-.052-.1-.035-.052-.069-.1-.035-.046a.615.615,0,0,0-.081-.092l-.034-.04a1.2,1.2,0,0,0-.127-.115h0l-.121-.092-.058-.035-.075-.046-.063-.035-.075-.035-.069-.029-.075-.029H83.08a1.691,1.691,0,0,0-1.553,1.012h0a6.947,6.947,0,1,0,0,11.72,1.691,1.691,0,0,0,3.261-.638V15.6M77.68,24.653a3.56,3.56,0,1,1,3.56-3.56,3.56,3.56,0,0,1-3.56,3.56" fill="#03292d"/>
        <path id="Path_207" data-name="Path 207" d="M163.97,19.432a5.67,5.67,0,0,0-2-3.7h0l-.081-.063h-.04a6.947,6.947,0,1,0,.374,10.6h0l.092-.086a1.7,1.7,0,0,0-1.208-2.875,1.679,1.679,0,0,0-1.15.466h0a3.519,3.519,0,0,1-2.392.88,3.565,3.565,0,0,1-3.054-1.725l6.6-.173a2.956,2.956,0,0,0,2.875-3.324m-9.6.1a3.542,3.542,0,0,1,5.365-1.248,2.2,2.2,0,0,1,.753,1.087Z" fill="#03292d"/>
        <path id="Path_208" data-name="Path 208" d="M103.783,20.7c.155-.115.3-.23.431-.345,1.409-1.254,2.1-3.18,2.1-5.883h0a1.725,1.725,0,0,0-1.7-1.662,1.685,1.685,0,0,0-1.685,1.616h0c0,1.725-.3,2.824-.96,3.41a4.9,4.9,0,0,1-3.45.822V11.432a1.7,1.7,0,0,0-3.387,0V26.309a1.7,1.7,0,1,0,3.387,0V22.037H99.1a10.666,10.666,0,0,0,1.409-.092l3.261,5.227a1.733,1.733,0,1,0,2.944-1.829Z" fill="#03292d"/>
        <path id="Path_209" data-name="Path 209" d="M56.265,23.239h0a1.757,1.757,0,0,0-2.663-.2c-.035,0-.173.207-.219.259a3.45,3.45,0,1,1,0-4.3c.04.058.19.224.219.253a1.725,1.725,0,0,0,3.013-1.219,1.662,1.662,0,0,0-.167-.776,1.57,1.57,0,0,0-.184-.316h0a6.947,6.947,0,1,0-.322,8.712,1.725,1.725,0,0,0,.667-1.374,1.662,1.662,0,0,0-.161-.7,1.57,1.57,0,0,0-.184-.316" fill="#03292d"/>
        <path id="Path_1979" data-name="Path 1979" d="M.576,3.972A1.22,1.22,0,0,1,.35,3.219,1.319,1.319,0,0,1,1,2.114a1.329,1.329,0,0,1,.728-.226,1.417,1.417,0,0,1,1,.477A5.3,5.3,0,0,0,4.305,3.52a4.68,4.68,0,0,0,1.972.38q1.959-.075,1.959-1.482a1.2,1.2,0,0,0-.665-1.1A9.392,9.392,0,0,0,5.5.557a17.959,17.959,0,0,1-2.373-.8A4.2,4.2,0,0,1,1.543-1.465a3.374,3.374,0,0,1-.665-2.2,3.325,3.325,0,0,1,.691-2.1A4.545,4.545,0,0,1,3.376-7.14a5.848,5.848,0,0,1,2.373-.49,7.293,7.293,0,0,1,2.562.477A4.455,4.455,0,0,1,10.32-5.747a1.4,1.4,0,0,1,.326.9,1.166,1.166,0,0,1-.477.954,1.265,1.265,0,0,1-.8.276,1.224,1.224,0,0,1-.9-.352A3.19,3.19,0,0,0,7.3-4.848a3.861,3.861,0,0,0-1.62-.326q-1.909,0-1.909,1.381a1.182,1.182,0,0,0,.352.892,2.4,2.4,0,0,0,.892.527q.54.188,1.519.465a16.607,16.607,0,0,1,2.26.778A3.879,3.879,0,0,1,10.32.1a3.525,3.525,0,0,1,.628,2.185,3.35,3.35,0,0,1-.728,2.147,4.61,4.61,0,0,1-1.872,1.4A6.039,6.039,0,0,1,6,6.308a8.5,8.5,0,0,1-3.089-.552A5.133,5.133,0,0,1,.576,3.972Z" transform="translate(164.91 21.768)" fill="#03292d" stroke="#03292d" stroke-width="1"/>
      </g>
    </g>
    <path id="Path_5033" data-name="Path 5033" d="M5.92-11.024a5.29,5.29,0,0,1,2.728.728,5.359,5.359,0,0,1,1.96,1.976,5.348,5.348,0,0,1,.72,2.72,5.362,5.362,0,0,1-.72,2.712,5.444,5.444,0,0,1-1.968,2,5.274,5.274,0,0,1-2.752.744A5.246,5.246,0,0,1,3.16-.88,5.358,5.358,0,0,1,1.208-2.864,5.365,5.365,0,0,1,.5-5.568a5.362,5.362,0,0,1,.72-2.712,5.464,5.464,0,0,1,1.96-2A5.232,5.232,0,0,1,5.92-11.024ZM5.888-1.2a4.384,4.384,0,0,0,2.248-.592A4.326,4.326,0,0,0,9.736-3.4a4.34,4.34,0,0,0,.584-2.2,4.254,4.254,0,0,0-.584-2.184A4.382,4.382,0,0,0,8.144-9.376,4.311,4.311,0,0,0,5.92-9.968a4.309,4.309,0,0,0-2.232.6,4.405,4.405,0,0,0-1.6,1.608A4.3,4.3,0,0,0,1.5-5.568,4.3,4.3,0,0,0,2.08-3.384,4.32,4.32,0,0,0,3.664-1.792,4.311,4.311,0,0,0,5.888-1.2ZM8.224-6.576a1.941,1.941,0,0,1-.28,1.064,1.737,1.737,0,0,1-.792.664l1.184,1.76H7.184L6.24-4.656H4.864v1.568H3.856V-8.4H6.048a2.45,2.45,0,0,1,1.608.472A1.659,1.659,0,0,1,8.224-6.576ZM4.864-5.5H6.048a1.316,1.316,0,0,0,.9-.28.977.977,0,0,0,.32-.776.906.906,0,0,0-.32-.752,1.4,1.4,0,0,0-.9-.256H4.864Z" transform="translate(197.515 6.493)" fill="#03292d"/>
  </g>
</svg>
